<?xml version="1.0" standalone="no"?>
<!DOCTYPE svg PUBLIC "-//W3C//DTD SVG 20010904//EN"
 "http://www.w3.org/TR/2001/REC-SVG-20010904/DTD/svg10.dtd">
<svg version="1.0" xmlns="http://www.w3.org/2000/svg"
 width="260.000000pt" height="260.000000pt" viewBox="0 0 260.000000 260.000000"
 preserveAspectRatio="xMidYMid meet">
<metadata>
Created by potrace 1.11, written by Peter Selinger 2001-2013
</metadata>
<g transform="translate(0.000000,260.000000) scale(0.100000,-0.100000)"
fill="#000000" stroke="none">
<path d="M1570 1640 c0 -133 -1 -140 -20 -140 -18 0 -20 7 -20 55 l0 55 -217
0 -218 0 -246 -318 c-136 -174 -266 -341 -289 -369 l-42 -53 59 0 58 0 253
320 c139 176 256 320 260 320 4 0 35 -33 69 -72 33 -40 115 -136 182 -213 67
-77 172 -199 234 -272 l112 -132 428 0 c236 -1 427 3 425 7 -1 4 -58 75 -125
157 -67 83 -207 256 -310 385 l-189 235 -117 3 -117 3 0 84 0 85 -85 0 -85 0
0 -140z"/>
<path d="M260 1160 c-135 -176 -246 -323 -248 -328 -1 -4 23 -5 53 -4 l55 4
118 151 c252 325 305 392 314 402 6 6 39 -22 91 -78 l82 -88 90 117 c50 64 94
123 98 130 7 12 -27 14 -200 14 l-208 0 -245 -320z"/>
<path d="M1039 1333 c-57 -76 -150 -198 -206 -271 -57 -74 -103 -136 -103
-138 0 -2 8 -4 18 -4 12 0 79 80 198 237 98 130 184 244 191 253 11 13 13 13
25 -3 7 -9 105 -127 218 -261 153 -183 211 -245 228 -245 18 -1 -9 36 -144
197 -91 108 -198 236 -238 284 -39 47 -74 87 -77 87 -3 1 -53 -61 -110 -136z"/>
<path d="M386 1110 c-91 -121 -166 -222 -166 -225 0 -3 7 -5 15 -5 14 0 73 76
238 305 44 61 81 112 83 114 1 1 31 -27 65 -63 44 -47 65 -64 73 -56 7 7 -10
31 -59 80 -38 39 -72 70 -76 70 -4 0 -81 -99 -173 -220z"/>
</g>
</svg>
